<?xml version="1.0" encoding="utf-8"?>
<!-- Generator: Adobe Illustrator 15.0.0, SVG Export Plug-In . SVG Version: 6.00 Build 0)  -->
<!DOCTYPE svg PUBLIC "-//W3C//DTD SVG 1.0//EN" "http://www.w3.org/TR/2001/REC-SVG-20010904/DTD/svg10.dtd">
<svg version="1.0" id="Layer_1" xmlns="http://www.w3.org/2000/svg" xmlns:xlink="http://www.w3.org/1999/xlink" x="0px" y="0px"
	 width="100px" height="100px" viewBox="0 0 100 100" enable-background="new 0 0 100 100" xml:space="preserve">
<g>
	<path d="M75.441,38.048v33.121c0,2.96-2.4,5.601-5.44,5.601H30c-3.04,0-5.44-2.641-5.44-5.601V38.048c0-3.04,2.4-5.44,5.44-5.44
		h5.12v2.16c0,2.16,1.76,3.84,3.84,3.84s3.84-1.68,3.84-3.84v-2.16h14.16v2.16c0,2.16,1.68,3.84,3.84,3.84
		c2,0,3.841-1.68,3.841-3.84v-2.16h5.359C73.041,32.608,75.441,35.008,75.441,38.048z M37.44,43.648h-7.84v7.28h7.84V43.648z
		 M37.44,53.809h-7.84v7.28h7.84V53.809z M37.44,63.889h-7.84v7.28h7.84V63.889z M36.561,34.768v-6.08c0-1.28,1.12-2.32,2.4-2.32
		c1.28,0,2.4,1.04,2.4,2.32v6.08c0,1.36-1.12,2.4-2.4,2.4C37.681,37.168,36.561,36.128,36.561,34.768z M48.481,43.648h-7.92v7.28
		h7.92V43.648z M48.481,53.809h-7.92v7.28h7.92V53.809z M48.481,63.889h-7.92v7.28h7.92V63.889z M59.441,43.648h-7.921v7.28h7.921
		V43.648z M59.441,53.809h-7.921v7.28h7.921V53.809z M59.441,63.889h-7.921v7.28h7.921V63.889z M58.401,34.768v-6.08
		c0-1.28,1.04-2.32,2.399-2.32c1.2,0,2.4,1.04,2.4,2.32v6.08c0,1.36-1.2,2.4-2.4,2.4C59.441,37.168,58.401,36.128,58.401,34.768z
		 M70.401,43.648h-7.84v7.28h7.84V43.648z M70.401,53.809h-7.84v7.28h7.84V53.809z M70.401,63.889h-7.84v7.28h7.84V63.889z"/>
</g>
</svg>
