<?xml version="1.0" encoding="utf-8"?>
<!-- Generator: Adobe Illustrator 15.0.0, SVG Export Plug-In . SVG Version: 6.00 Build 0)  -->
<!DOCTYPE svg PUBLIC "-//W3C//DTD SVG 1.0//EN" "http://www.w3.org/TR/2001/REC-SVG-20010904/DTD/svg10.dtd">
<svg version="1.0" id="Layer_1" xmlns="http://www.w3.org/2000/svg" xmlns:xlink="http://www.w3.org/1999/xlink" x="0px" y="0px"
	 width="100px" height="100px" viewBox="0 0 100 100" enable-background="new 0 0 100 100" xml:space="preserve">
<g>
	<path fill="#555555" d="M56.842,28.128l13.12,13.44V76.77H30.041V28.128H56.842z M35.801,71.009h28.4c0,0,0-23.44,0-25.36s-0.88-2.16-2.479-2.16
		c-1.601,0-7.841,0-7.841,0s0-4.72,0-5.92c0-1.92-1.84-3.68-4.479-3.68c-2.88,0-13.601,0-13.601,0V71.009z M41.321,52.209h17.92
		v-2.161h-17.92V52.209z M41.321,58.608h17.92v-2.159h-17.92V58.608z M41.321,65.009h17.92v-2.16h-17.92V65.009z"/>
</g>
</svg>
