<?xml version="1.0" encoding="utf-8"?>
<!-- Generator: Adobe Illustrator 15.0.0, SVG Export Plug-In . SVG Version: 6.00 Build 0)  -->
<!DOCTYPE svg PUBLIC "-//W3C//DTD SVG 1.0//EN" "http://www.w3.org/TR/2001/REC-SVG-20010904/DTD/svg10.dtd">
<svg version="1.0" id="Layer_1" xmlns="http://www.w3.org/2000/svg" xmlns:xlink="http://www.w3.org/1999/xlink" x="0px" y="0px"
	 width="100px" height="100px" viewBox="0 0 100 100" enable-background="new 0 0 100 100" xml:space="preserve">
<g>
	<path fill="#555555" d="M21.761,71.089c-0.56-1.681-0.88-3.521-0.72-5.44c0.16-3.68,1.68-7.279,4.24-9.84l10.16-10.16
		c1.44-1.36,3.12-2.48,5.04-3.2c-1.92,3.28-2.72,7.04-2.32,11.04l-7.6,7.601c-2.72,2.64-2.96,7.28-0.64,9.601
		c2.4,2.319,6.96,2.08,9.68-0.561l10.16-10.16c4.56-4.561,0.48-9.6,0.48-9.6l5.28-5.2c2.64,2.96,3.92,6.32,3.76,10.16
		c-0.159,3.761-1.76,7.281-4.319,9.841l-10.241,10.16c-2.56,2.56-6.08,4.16-9.76,4.319c-1.84,0.08-3.68-0.159-5.44-0.719
		C26.081,77.568,23.121,74.93,21.761,71.089z M78.402,35.008c0.56,1.76,0.8,3.6,0.72,5.44c-0.16,3.68-1.76,7.28-4.24,9.84
		l-10.24,10.161c-1.439,1.359-3.04,2.479-4.96,3.199c1.92-3.359,2.64-7.04,2.32-10.96l7.6-7.6c2.721-2.64,2.96-7.28,0.561-9.68
		c-2.32-2.32-6.881-2.08-9.601,0.56l-10.16,10.24c-4.56,4.56-0.48,9.52-0.48,9.52l-5.28,5.28c-1.52-1.601-2.4-3.12-3.04-4.8
		c-1.76-5.281-0.32-11.041,3.6-15.281l10.24-10.16c2.48-2.56,6.08-4.08,9.761-4.32c1.84-0.08,3.68,0.16,5.359,0.8
		C74.002,28.448,77.122,31.248,78.402,35.008z"/>
</g>
</svg>
