<?xml version="1.0" encoding="UTF-8" standalone="no"?>
<svg
   xmlns:dc="http://purl.org/dc/elements/1.1/"
   xmlns:cc="http://creativecommons.org/ns#"
   xmlns:rdf="http://www.w3.org/1999/02/22-rdf-syntax-ns#"
   xmlns:svg="http://www.w3.org/2000/svg"
   xmlns="http://www.w3.org/2000/svg"
   xmlns:sodipodi="http://sodipodi.sourceforge.net/DTD/sodipodi-0.dtd"
   xmlns:inkscape="http://www.inkscape.org/namespaces/inkscape"
   version="1.1"
   viewBox="0 0 512 512"
   enable-background="new 0 0 512 512"
   id="svg2"
   inkscape:version="0.91 r13725"
   sodipodi:docname="cookie_policy_widget.svg"
   height="100"
   width="100">
  <metadata
     id="metadata24">
    <rdf:RDF>
      <cc:Work
         rdf:about="">
        <dc:format>image/svg+xml</dc:format>
        <dc:type
           rdf:resource="http://purl.org/dc/dcmitype/StillImage" />
      </cc:Work>
    </rdf:RDF>
  </metadata>
  <defs
     id="defs22" />
  <sodipodi:namedview
     pagecolor="#ffffff"
     bordercolor="#666666"
     borderopacity="1"
     objecttolerance="10"
     gridtolerance="10"
     guidetolerance="10"
     inkscape:pageopacity="0"
     inkscape:pageshadow="2"
     inkscape:window-width="1535"
     inkscape:window-height="876"
     id="namedview20"
     showgrid="false"
     inkscape:zoom="2.6074563"
     inkscape:cx="2.213889"
     inkscape:cy="92.747035"
     inkscape:window-x="65"
     inkscape:window-y="24"
     inkscape:window-maximized="1"
     inkscape:current-layer="svg2" />
  <g
     id="g4"
     style="fill:#555555"
     transform="matrix(0.52315922,0,0,0.52315922,127.45811,123.04486)">
    <g
       id="g6">
      <g
         id="g8">
        <path
           d="m 497.1,286.7 c -3.4,-4.6 -8.5,-7.6 -14.1,-8.3 -73.7,-9.1 -129.2,-71.4 -129.2,-145.1 0,-24.7 6.4,-49.2 18.5,-70.8 2.8,-4.9 3.3,-10.8 1.6,-16.2 -1.7,-5.4 -5.7,-9.8 -10.8,-12.2 C 330,18.8 294.7,11 258.1,11 c -136.2,0 -247,109.9 -247,245 0,135.1 110.8,245 247.1,245 118.2,0 220.2,-83.5 242.6,-198.5 1,-5.5 -0.3,-11.2 -3.7,-15.8 z m -239,173.5 C 144.6,460.2 52.2,368.6 52.2,256 52.2,143.4 144.6,51.8 258.1,51.8 c 23.5,0 46.4,3.9 68.2,11.5 -9,22.2 -13.7,46 -13.7,70 0,86.5 59.9,160.8 142.7,181.4 -25.7,85.4 -105.6,145.5 -197.2,145.5 z"
           id="path10"
           inkscape:connector-curvature="0" />
        <ellipse
           cx="194.5"
           cy="150.8"
           rx="20.4"
           ry="20.299999"
           id="ellipse12" />
        <ellipse
           cx="264.39999"
           cy="230.7"
           rx="20.4"
           ry="20.299999"
           id="ellipse14" />
        <ellipse
           cx="293.79999"
           cy="340.20001"
           rx="20.4"
           ry="20.299999"
           id="ellipse16" />
        <ellipse
           cx="146.7"
           cy="304.29999"
           rx="20.4"
           ry="20.299999"
           id="ellipse18" />
      </g>
    </g>
  </g>
</svg>
