<?xml version="1.0" encoding="utf-8"?>
<!-- Generator: Adobe Illustrator 15.0.0, SVG Export Plug-In . SVG Version: 6.00 Build 0)  -->
<!DOCTYPE svg PUBLIC "-//W3C//DTD SVG 1.0//EN" "http://www.w3.org/TR/2001/REC-SVG-20010904/DTD/svg10.dtd">
<svg version="1.0" id="Layer_1" xmlns="http://www.w3.org/2000/svg" xmlns:xlink="http://www.w3.org/1999/xlink" x="0px" y="0px"
	 width="100px" height="100px" viewBox="0 0 100 100" enable-background="new 0 0 100 100" xml:space="preserve">
<g>
	<path fill="#555555" d="M38.561,56.688c0,3.601-2.72,6.48-6.32,6.48c-3.76,0-6.48-2.88-6.48-6.48s2.72-6.48,6.48-6.48
		C35.841,50.208,38.561,53.088,38.561,56.688z M56.562,56.688c0,3.601-2.88,6.48-6.48,6.48c-3.6,0-6.48-2.88-6.48-6.48
		s2.88-6.48,6.48-6.48C53.682,50.208,56.562,53.088,56.562,56.688z M74.401,56.688c0,3.601-2.8,6.48-6.479,6.48
		c-3.601,0-6.4-2.88-6.4-6.48s2.8-6.48,6.4-6.48C71.602,50.208,74.401,53.088,74.401,56.688z"/>
</g>
</svg>
