<?xml version="1.0" encoding="utf-8"?>
<!-- Generator: Adobe Illustrator 15.0.0, SVG Export Plug-In . SVG Version: 6.00 Build 0)  -->
<!DOCTYPE svg PUBLIC "-//W3C//DTD SVG 1.0//EN" "http://www.w3.org/TR/2001/REC-SVG-20010904/DTD/svg10.dtd">
<svg version="1.0" id="Layer_1" xmlns="http://www.w3.org/2000/svg" xmlns:xlink="http://www.w3.org/1999/xlink" x="0px" y="0px"
	 width="100px" height="100px" viewBox="0 0 100 100" enable-background="new 0 0 100 100" xml:space="preserve">
<g>
	<path fill="#555555" d="M71.481,30.368c2.4,0,3.521,1.44,3.521,3.2v14.96c0,1.68-1.28,3.04-2.96,3.2l-32.321,3.6c-2.88,0.32-2.96,3.84,0.16,3.84
		h30.641c3.521,0,3.521,5.201,0,5.201H38.921c-7.04,0-10.72-10.32-0.96-13.761l-10-21.92H22.2c-1.6,0-2.88-1.28-2.88-2.88
		c0-1.6,1.28-2.88,2.88-2.88h3.68c5.12,0,5.2,1.2,8.16,7.44H71.481z M37.001,73.329c0,2.72-2.16,4.96-5.041,4.96
		c-2.72,0-4.96-2.24-4.96-4.96c0-2.8,2.24-5.04,4.96-5.04C34.841,68.289,37.001,70.529,37.001,73.329z M38.441,40.288h9.52
		l-1.76-5.6h-10.4L38.441,40.288z M50.761,49.648l-2.08-6.48h-9.041l3.28,7.28L50.761,49.648z M49.081,34.688l1.68,5.6h7.92
		l-1.28-5.6H49.081z M60.762,48.608l-1.601-5.44h-7.6l2,6.16L60.762,48.608z M70.602,34.688h-10.32l1.2,5.6h9.12V34.688z
		 M70.842,73.329c0,2.72-2.16,4.96-4.96,4.96c-2.801,0-5.041-2.24-5.041-4.96c0-2.8,2.24-5.04,5.041-5.04
		C68.682,68.289,70.842,70.529,70.842,73.329z M70.602,43.168h-8.48l1.28,5.04l7.2-0.72V43.168z"/>
</g>
</svg>
