<?xml version="1.0" encoding="utf-8"?>
<!-- Generator: Adobe Illustrator 15.0.0, SVG Export Plug-In . SVG Version: 6.00 Build 0)  -->
<!DOCTYPE svg PUBLIC "-//W3C//DTD SVG 1.0//EN" "http://www.w3.org/TR/2001/REC-SVG-20010904/DTD/svg10.dtd">
<svg version="1.0" id="Layer_1" xmlns="http://www.w3.org/2000/svg" xmlns:xlink="http://www.w3.org/1999/xlink" x="0px" y="0px"
	 width="100px" height="100px" viewBox="0 0 100 100" enable-background="new 0 0 100 100" xml:space="preserve">
<g>
	<path fill="#555555" d="M25.48,43.888v-11.84h13.44v11.84H25.48z M27.081,49.968h10.24v4.401h-10.24V49.968z M27.081,61.168h10.24v4.4h-10.24
		V61.168z M27.081,72.369h10.24v4.4h-10.24V72.369z M43.241,43.888v-11.84h13.44v11.84H43.241z M44.841,49.968h10.24v4.401h-10.24
		V49.968z M44.841,61.168h10.24v4.4h-10.24V61.168z M44.841,72.369h10.24v4.4h-10.24V72.369z M61.081,43.888v-11.84h13.44v11.84
		H61.081z M62.682,49.968h10.24v4.401h-10.24V49.968z M62.682,61.168h10.24v4.4h-10.24V61.168z M62.682,72.369h10.24v4.4h-10.24
		V72.369z"/>
</g>
</svg>
