<?xml version="1.0" encoding="UTF-8" standalone="no"?>
<!-- Generator: Adobe Illustrator 16.0.0, SVG Export Plug-In . SVG Version: 6.00 Build 0)  -->

<svg
   xmlns:dc="http://purl.org/dc/elements/1.1/"
   xmlns:cc="http://creativecommons.org/ns#"
   xmlns:rdf="http://www.w3.org/1999/02/22-rdf-syntax-ns#"
   xmlns:svg="http://www.w3.org/2000/svg"
   xmlns="http://www.w3.org/2000/svg"
   xmlns:sodipodi="http://sodipodi.sourceforge.net/DTD/sodipodi-0.dtd"
   xmlns:inkscape="http://www.inkscape.org/namespaces/inkscape"
   version="1.1"
   id="Capa_1"
   x="0px"
   y="0px"
   width="100"
   height="100"
   viewBox="0 0 438.533 438.533"
   xml:space="preserve"
   inkscape:version="0.91 r13725"
   sodipodi:docname="page.svg"><metadata
     id="metadata41"><rdf:RDF><cc:Work
         rdf:about=""><dc:format>image/svg+xml</dc:format><dc:type
           rdf:resource="http://purl.org/dc/dcmitype/StillImage" /></cc:Work></rdf:RDF></metadata><defs
     id="defs39" /><sodipodi:namedview
     pagecolor="#ffffff"
     bordercolor="#666666"
     borderopacity="1"
     objecttolerance="10"
     gridtolerance="10"
     guidetolerance="10"
     inkscape:pageopacity="0"
     inkscape:pageshadow="2"
     inkscape:window-width="1535"
     inkscape:window-height="876"
     id="namedview37"
     showgrid="false"
     inkscape:zoom="2.1526317"
     inkscape:cx="78.20294"
     inkscape:cy="62.705923"
     inkscape:window-x="65"
     inkscape:window-y="24"
     inkscape:window-maximized="1"
     inkscape:current-layer="Capa_1" /><g
     id="g3"
     transform="matrix(0.48156177,0,0,0.48156177,114.69499,123.45586)"
     style="fill:#555555"><path
       d="m 396.283,130.188 c -3.806,-9.135 -8.371,-16.365 -13.703,-21.695 L 293.502,19.412 C 288.17,14.087 280.942,9.517 271.805,5.708 262.672,1.903 254.297,0 246.687,0 L 63.953,0 C 56.341,0 49.869,2.663 44.54,7.993 39.21,13.32 36.546,19.792 36.546,27.407 l 0,383.719 c 0,7.617 2.664,14.089 7.994,19.417 5.33,5.325 11.801,7.991 19.414,7.991 l 310.633,0 c 7.611,0 14.079,-2.666 19.407,-7.991 5.328,-5.332 7.994,-11.8 7.994,-19.417 l 0,-255.813 c 0.003,-7.614 -1.9,-15.99 -5.705,-25.125 z M 255.816,38.826 c 5.517,1.903 9.418,3.999 11.704,6.28 l 89.366,89.366 c 2.279,2.286 4.374,6.186 6.276,11.706 l -107.346,0 0,-107.352 z m 109.633,363.165 -292.36,0 0,-365.446 146.178,0 0,118.771 c 0,7.614 2.662,14.084 7.992,19.414 5.332,5.327 11.8,7.994 19.417,7.994 l 118.773,0 0,219.267 z"
       id="path5"
       inkscape:connector-curvature="0" /></g><g
     id="g7" /><g
     id="g9" /><g
     id="g11" /><g
     id="g13" /><g
     id="g15" /><g
     id="g17" /><g
     id="g19" /><g
     id="g21" /><g
     id="g23" /><g
     id="g25" /><g
     id="g27" /><g
     id="g29" /><g
     id="g31" /><g
     id="g33" /><g
     id="g35" /></svg>