<?xml version="1.0" encoding="UTF-8" standalone="no"?>
<!-- Generator: Adobe Illustrator 16.0.0, SVG Export Plug-In . SVG Version: 6.00 Build 0)  -->

<svg
   xmlns:dc="http://purl.org/dc/elements/1.1/"
   xmlns:cc="http://creativecommons.org/ns#"
   xmlns:rdf="http://www.w3.org/1999/02/22-rdf-syntax-ns#"
   xmlns:svg="http://www.w3.org/2000/svg"
   xmlns="http://www.w3.org/2000/svg"
   xmlns:sodipodi="http://sodipodi.sourceforge.net/DTD/sodipodi-0.dtd"
   xmlns:inkscape="http://www.inkscape.org/namespaces/inkscape"
   version="1.1"
   id="Capa_1"
   x="0px"
   y="0px"
   width="100"
   height="100"
   viewBox="0 0 511.626 511.627"
   xml:space="preserve"
   inkscape:version="0.91 r13725"
   sodipodi:docname="productCarouselWidgetEntity.svg"><metadata
     id="metadata41"><rdf:RDF><cc:Work
         rdf:about=""><dc:format>image/svg+xml</dc:format><dc:type
           rdf:resource="http://purl.org/dc/dcmitype/StillImage" /></cc:Work></rdf:RDF></metadata><defs
     id="defs39" /><sodipodi:namedview
     pagecolor="#ffffff"
     bordercolor="#666666"
     borderopacity="1"
     objecttolerance="10"
     gridtolerance="10"
     guidetolerance="10"
     inkscape:pageopacity="0"
     inkscape:pageshadow="2"
     inkscape:window-width="1535"
     inkscape:window-height="876"
     id="namedview37"
     showgrid="false"
     inkscape:zoom="3.6901883"
     inkscape:cx="-10.496167"
     inkscape:cy="46.284396"
     inkscape:window-x="65"
     inkscape:window-y="24"
     inkscape:window-maximized="1"
     inkscape:current-layer="Capa_1" /><g
     id="g3"
     style="fill:#555555"
     transform="matrix(0.5013796,0,0,0.5013796,134.48588,142.60559)"><path
       d="m 506.203,242.966 -73.087,-73.089 c -3.621,-3.617 -7.902,-5.424 -12.847,-5.424 -4.949,0 -9.233,1.807 -12.854,5.424 -3.613,3.616 -5.42,7.898 -5.42,12.847 l 0,36.547 -292.359,0 0,-36.547 c 0,-4.949 -1.809,-9.231 -5.426,-12.847 -3.619,-3.617 -7.902,-5.424 -12.85,-5.424 -4.947,0 -9.23,1.807 -12.847,5.424 L 5.424,242.966 C 1.809,246.58 0,250.865 0,255.813 c 0,4.947 1.809,9.232 5.424,12.845 l 73.089,73.091 c 3.617,3.613 7.897,5.424 12.847,5.424 4.952,0 9.234,-1.811 12.85,-5.424 3.617,-3.614 5.426,-7.898 5.426,-12.847 l 0,-36.549 292.359,0 0,36.549 c 0,4.948 1.807,9.232 5.42,12.847 3.621,3.613 7.905,5.424 12.854,5.424 4.944,0 9.226,-1.811 12.847,-5.424 l 73.087,-73.091 c 3.617,-3.613 5.424,-7.898 5.424,-12.845 -0.001,-4.948 -1.807,-9.233 -5.424,-12.847 z"
       id="path5"
       inkscape:connector-curvature="0" /></g><g
     id="g7" /><g
     id="g9" /><g
     id="g11" /><g
     id="g13" /><g
     id="g15" /><g
     id="g17" /><g
     id="g19" /><g
     id="g21" /><g
     id="g23" /><g
     id="g25" /><g
     id="g27" /><g
     id="g29" /><g
     id="g31" /><g
     id="g33" /><g
     id="g35" /></svg>