<?xml version="1.0" encoding="UTF-8" standalone="no"?>
<svg
   xmlns:dc="http://purl.org/dc/elements/1.1/"
   xmlns:cc="http://creativecommons.org/ns#"
   xmlns:rdf="http://www.w3.org/1999/02/22-rdf-syntax-ns#"
   xmlns:svg="http://www.w3.org/2000/svg"
   xmlns="http://www.w3.org/2000/svg"
   xmlns:sodipodi="http://sodipodi.sourceforge.net/DTD/sodipodi-0.dtd"
   xmlns:inkscape="http://www.inkscape.org/namespaces/inkscape"
   width="100"
   height="100"
   viewBox="0 0 1792 1792"
   id="svg2"
   version="1.1"
   inkscape:version="0.91 r13725"
   sodipodi:docname="social_widget.svg">
  <metadata
     id="metadata10"
     fill="#555555">
    <rdf:RDF>
      <cc:Work
         rdf:about="">
        <dc:format>image/svg+xml</dc:format>
        <dc:type
           rdf:resource="http://purl.org/dc/dcmitype/StillImage" />
      </cc:Work>
    </rdf:RDF>
  </metadata>
  <defs
     id="defs8" />
  <sodipodi:namedview
     pagecolor="#ffffff"
     bordercolor="#666666"
     borderopacity="1"
     objecttolerance="10"
     gridtolerance="10"
     guidetolerance="10"
     inkscape:pageopacity="0"
     inkscape:pageshadow="2"
     inkscape:window-width="1535"
     inkscape:window-height="876"
     id="namedview6"
     showgrid="false"
     inkscape:zoom="2.97995"
     inkscape:cx="-37.327993"
     inkscape:cy="53.403219"
     inkscape:window-x="65"
     inkscape:window-y="24"
     inkscape:window-maximized="1"
     inkscape:current-layer="svg2" />
  <path
     d="m 1241.9056,1044.8205 0,141.4541 q 0,64.9924 -46.15,111.1426 -46.1502,46.15 -111.1425,46.15 l -454.40088,0 q -64.99244,0 -111.14252,-46.15 -46.15008,-46.1502 -46.15008,-111.1426 l 0,-454.40072 q 0,-64.99247 46.15008,-111.14255 46.15008,-46.1501 111.14252,-46.1501 l 139.26948,0 q 7.10001,0 12.28848,5.18848 5.18846,5.18847 5.18846,12.28848 0,14.74618 -14.20002,17.47695 -42.05392,14.20004 -72.63859,32.7693 -5.46155,2.18462 -8.73848,2.18462 l -61.16933,0 q -36.04623,0 -61.71551,25.66928 -25.66927,25.66933 -25.66927,61.71554 l 0,454.40072 q 0,36.0462 25.66927,61.7155 25.66928,25.6693 61.71551,25.6693 l 454.40088,0 q 36.0462,0 61.7154,-25.6693 25.6693,-25.6693 25.6693,-61.7155 l 0,-116.8771 q 0,-10.3769 9.8308,-15.8385 15.2923,-7.0999 29.4924,-20.2077 8.7385,-8.7385 19.1153,-4.3692 11.4693,4.9154 11.4693,15.8384 z m 129.4387,-270.89271 -209.7235,209.72349 q -9.8307,10.3768 -24.5769,10.3768 -6.5539,0 -13.6538,-2.7307 -21.3002,-9.2847 -21.3002,-32.22308 l 0,-104.86185 -87.3847,0 q -176.408,0 -239.2158,71.5463 -64.99243,74.82325 -40.41546,258.33125 1.63846,12.5616 -10.9231,18.5693 -4.36923,1.0922 -6.55385,1.0922 -8.73849,0 -14.20003,-7.0999 -5.46155,-7.6463 -11.46925,-16.9309 -6.0077,-9.2846 -21.57311,-37.4115 -15.56542,-28.1271 -27.03468,-54.3424 -11.46924,-26.2154 -21.02695,-62.2616 -9.55772,-36.04622 -9.55772,-66.6309 0,-26.76159 1.91155,-49.70014 1.91154,-22.93854 7.64617,-49.15401 5.73462,-26.21533 15.29233,-48.06161 9.55771,-21.84616 25.66928,-44.51151 16.11157,-22.66548 37.41161,-40.41552 21.30003,-17.75004 51.61162,-33.5885 30.3116,-15.83845 67.99629,-26.48853 37.68468,-10.65002 87.1117,-16.65772 49.427,-6.0077 107.3194,-6.0077 l 87.3847,0 0,-104.86173 q 0,-22.93851 21.3002,-32.22314 7.0999,-2.73077 13.6538,-2.73077 14.2,0 24.5769,10.37695 l 209.7235,209.72342 q 10.377,10.37701 10.377,24.57694 0,14.20006 -10.377,24.57706 z"
     id="path4"
     inkscape:connector-curvature="0"
     style="fill:#555555" />
</svg>
