<?xml version="1.0" encoding="UTF-8" standalone="no"?>
<!-- Generator: Adobe Illustrator 16.0.0, SVG Export Plug-In . SVG Version: 6.00 Build 0)  -->

<svg
   xmlns:dc="http://purl.org/dc/elements/1.1/"
   xmlns:cc="http://creativecommons.org/ns#"
   xmlns:rdf="http://www.w3.org/1999/02/22-rdf-syntax-ns#"
   xmlns:svg="http://www.w3.org/2000/svg"
   xmlns="http://www.w3.org/2000/svg"
   xmlns:sodipodi="http://sodipodi.sourceforge.net/DTD/sodipodi-0.dtd"
   xmlns:inkscape="http://www.inkscape.org/namespaces/inkscape"
   version="1.1"
   id="Capa_1"
   x="0px"
   y="0px"
   width="100"
   height="100"
   viewBox="0 0 511.627 511.627"
   xml:space="preserve"
   inkscape:version="0.91 r13725"
   sodipodi:docname="stackexchangequestions_widget.svg"><metadata
     id="metadata55"><rdf:RDF><cc:Work
         rdf:about=""><dc:format>image/svg+xml</dc:format><dc:type
           rdf:resource="http://purl.org/dc/dcmitype/StillImage" /></cc:Work></rdf:RDF></metadata><defs
     id="defs53" /><sodipodi:namedview
     pagecolor="#ffffff"
     bordercolor="#666666"
     borderopacity="1"
     objecttolerance="10"
     gridtolerance="10"
     guidetolerance="10"
     inkscape:pageopacity="0"
     inkscape:pageshadow="2"
     inkscape:window-width="1535"
     inkscape:window-height="876"
     id="namedview51"
     showgrid="false"
     inkscape:zoom="3.6901883"
     inkscape:cx="60.204188"
     inkscape:cy="70.814244"
     inkscape:window-x="65"
     inkscape:window-y="24"
     inkscape:window-maximized="1"
     inkscape:current-layer="Capa_1" /><g
     id="g3"
     style="fill:#555555"
     transform="matrix(0.54355592,0,0,0.54355592,122.20356,118.45357)"><g
       id="g5"><polygon
         points="123.913,326.334 119.916,369.162 321.197,387.717 324.907,344.893 "
         id="polygon7" /><polygon
         points="118.202,400.283 118.202,443.389 320.055,443.111 320.055,399.996 "
         id="polygon9" /><polygon
         points="189.865,136.471 167.883,173.586 341.751,276.37 363.734,239.255 "
         id="polygon11" /><polygon
         points="143.327,236.112 132.191,277.798 327.193,330.047 338.329,288.361 "
         id="polygon13" /><polygon
         points="388.86,501.347 388.86,301.212 354.594,301.212 354.594,477.651 89.649,477.651 89.649,301.212 55.104,301.212 55.104,511.34 55.391,511.34 65.386,511.627 388.573,511.627 388.573,511.34 "
         id="polygon15" /><polygon
         points="379.436,7.423 413.989,206.421 456.523,198.999 421.98,0 "
         id="polygon17" /><polygon
         points="370.873,233.26 406.282,208.993 292.643,41.971 256.958,66.522 "
         id="polygon19" /></g></g><g
     id="g21" /><g
     id="g23" /><g
     id="g25" /><g
     id="g27" /><g
     id="g29" /><g
     id="g31" /><g
     id="g33" /><g
     id="g35" /><g
     id="g37" /><g
     id="g39" /><g
     id="g41" /><g
     id="g43" /><g
     id="g45" /><g
     id="g47" /><g
     id="g49" /></svg>